// Axel F mélodie
// Source https://github.com/nseidle/AxelF_DoorBell/tree/master/AxelF
#define AXEL_F {  \
  {NOTE_D4,  8},  \
  {0,        8},  \
  {NOTE_F4,  6},  \
  {NOTE_D4,  16}, \
  {0,        16}, \
  {NOTE_D4,  16}, \
  {NOTE_G4,  8},  \
  {NOTE_D4,  8},  \
  {NOTE_C4,  8},  \
  {NOTE_D4,  8},  \
  {0,        8},  \
  {NOTE_A4,  6},  \
  {NOTE_D4,  16}, \
  {0,        16}, \
  {NOTE_D4,  16}, \
  {NOTE_AS4, 8},  \
  {NOTE_A4,  8},  \
  {NOTE_F4,  8},  \
  {NOTE_D4,  8},  \
  {NOTE_A4,  8},  \
  {NOTE_D5,  8},  \
  {NOTE_D4,  16}, \
  {NOTE_C4,  16}, \
  {0,        16}, \
  {NOTE_C4,  16}, \
  {NOTE_A3,  8},  \
  {NOTE_E4,  8},  \
  {NOTE_D4,  2},  \
  {NOTE_D4,  2},  \
  {0,        2}}

// Mario mélodie
// Source https://www.princetronics.com/supermariothemesong/
#define MARIO {  \
  {NOTE_E7, 12}, \
  {NOTE_E7, 12}, \
  {0,       12}, \
  {NOTE_E7, 12}, \
  {0,       12}, \
  {NOTE_C7, 12}, \
  {NOTE_E7, 12}, \
  {0,       12}, \
  {NOTE_G7, 12}, \
  {0,       12}, \
  {0,       12}, \
  {0,       12}, \
  {NOTE_G6, 12}, \
  {0,       12}, \
  {0,       12}, \
  {0,       12}, \
  {NOTE_C7, 12}, \
  {0,       12}, \
  {0,       12}, \
  {NOTE_G6, 12}, \
  {0,       12}, \
  {0,       12}, \
  {NOTE_E6, 12}, \
  {0,       12}, \
  {0,       9},  \
  {NOTE_A6, 9},  \
  {0,       9},  \
  {NOTE_B6, 12}, \
  {0,       12}, \
  {NOTE_AS6,12}, \
  {NOTE_A6, 12}, \
  {0,       12}, \
  {NOTE_G6, 12}, \
  {NOTE_E7, 12}, \
  {NOTE_G7, 12}, \
  {NOTE_A7, 12}, \
  {0,       12}, \
  {NOTE_F7, 12}, \
  {NOTE_G7, 12}, \
  {0,       12}, \
  {NOTE_E7, 12}, \
  {0,       12}, \
  {NOTE_C7, 12}, \
  {NOTE_D7, 12}, \
  {NOTE_B6, 12}, \
  {0,       12}, \
  {0,       12}, \
  {NOTE_C7, 12}, \
  {0,       12}, \
  {0,       12}, \
  {NOTE_G6, 12}, \
  {0,       12}, \
  {0,       12}, \
  {NOTE_E6, 12}, \
  {0,       12}, \
  {0,       12}, \
  {NOTE_A6, 12}, \
  {0,       12}, \
  {NOTE_B6, 12}, \
  {0,       12}, \
  {NOTE_AS6,12}, \
  {NOTE_A6, 12}, \
  {0,       12}, \
  {NOTE_G6, 9},  \
  {NOTE_E7, 9},  \
  {NOTE_G7, 9},  \
  {NOTE_A7, 12}, \
  {0,       12}, \
  {NOTE_F7, 12}, \
  {NOTE_G7, 12}, \
  {0,       12}, \
  {NOTE_E7, 12}, \
  {0,       12}, \
  {NOTE_C7, 12}, \
  {NOTE_D7, 12}, \
  {NOTE_B6, 12}, \
  {0,       12}, \
  {0,       12}}

// Marche impériale mélodie
// Source https://gist.github.com/tagliati/1804108
#define MARCHE_IMPERIALE {  \
  {NOTE_A4,  10}, \
  {NOTE_A4,  10}, \
  {NOTE_A4,  10}, \
  {NOTE_F4,  7},  \
  {NOTE_C5,  3},  \
  {NOTE_A4,  10}, \
  {NOTE_F4,  7},  \
  {NOTE_C5,  3},  \
  {NOTE_A4,  20}, \
  {NOTE_E5,  10}, \
  {NOTE_E5,  10}, \
  {NOTE_E5,  10}, \
  {NOTE_F5,  7},  \
  {NOTE_C5,  3},  \
  {NOTE_GS4, 10}, \
  {NOTE_F4,  7},  \
  {NOTE_C5,  3},  \
  {NOTE_A4,  20}, \
  {NOTE_A5,  10}, \
  {NOTE_A4,  7},  \
  {NOTE_A4,  3},  \
  {NOTE_A5,  10}, \
  {NOTE_GS5, 5},  \
  {NOTE_G5,  5},  \
  {NOTE_FS5, 2},  \
  {NOTE_F5,  2},  \
  {NOTE_FS5, 5},  \
  {NOTE_AS4, 5},  \
  {NOTE_DS5, 10}, \
  {NOTE_D5,  5},  \
  {NOTE_CS5, 5},  \
  {NOTE_C5,  2},  \
  {NOTE_AS4, 2},  \
  {NOTE_C5,  5},  \
  {NOTE_F4,  2},  \
  {NOTE_GS4, 10}, \
  {NOTE_F4,  7},  \
  {NOTE_A4,  2},  \
  {NOTE_C5,  10}, \
  {NOTE_A4,  7},  \
  {NOTE_C5,  3},  \
  {NOTE_E5,  20}, \
  {NOTE_A5,  10}, \
  {NOTE_A4,  7},  \
  {NOTE_A4,  3},  \
  {NOTE_A5,  10}, \
  {NOTE_GS5, 5},  \
  {NOTE_G5,  5},  \
  {NOTE_FS5, 2},  \
  {NOTE_F5,  2},  \
  {NOTE_FS5, 5},  \
  {NOTE_AS4, 5},  \
  {NOTE_DS5, 10}, \
  {NOTE_D5,  5},  \
  {NOTE_CS5, 5},  \
  {NOTE_C5,  2},  \
  {NOTE_AS4, 2},  \
  {NOTE_C5,  5},  \
  {NOTE_F4,  5},  \
  {NOTE_GS4, 10}, \
  {NOTE_F4,  7},  \
  {NOTE_C5,  3},  \
  {NOTE_A4,  10}, \
  {NOTE_F4,  7},  \
  {NOTE_C4,  3},  \
  {NOTE_A4,  20}} 

// Alarme sonsorité 1
#define ALARME1 {  \
  {NOTE_A4,  20},  \
  {NOTE_C4,  20}}
